<svg width="20" height="21" viewBox="0 0 20 21" fill="none" xmlns="http://www.w3.org/2000/svg">
<g clip-path="url(#clip0_2019_1054)">
<g clip-path="url(#clip1_2019_1054)">
<path d="M0.837286 3.76618C0.612648 4.03034 0.387352 4.29385 0.167984 4.55142C-0.262846 4.11664 -0.63834 3.73851 -1 3.37422C-0.083004 2.4559 0.852437 1.5198 1.77602 0.59556C2.70026 1.52178 3.63505 2.45788 4.55072 3.37553C4.19302 3.73324 3.81489 4.11071 3.40382 4.52178C3.16601 4.2563 2.91041 3.97105 2.59025 3.61466V7.40452C4.31555 5.67659 6.08234 3.90847 7.8386 2.14958C7.37549 2.14958 6.85112 2.1173 6.33333 2.15946C5.88472 2.19569 5.57115 2.04813 5.27866 1.71743C4.92358 1.31624 4.51976 0.957879 4.08235 0.527707C4.24769 0.515191 4.33794 0.502674 4.42885 0.502674C8.82148 0.502016 13.2141 0.500039 17.6067 0.502674C19.0086 0.503333 20.0079 1.48028 20.0099 2.87356C20.0171 7.28924 20.0125 11.7043 20.0125 16.1199C20.0125 16.1812 20.0059 16.2431 19.9209 16.363C19.5231 15.9467 19.143 15.5112 18.72 15.1219C18.4453 14.8689 18.3347 14.6054 18.357 14.2339C18.3887 13.7141 18.365 13.1911 18.365 12.6746C16.6008 14.4408 14.8544 16.1884 13.112 17.9328H16.9091C16.554 17.643 16.2615 17.4045 15.9743 17.17C16.4453 16.7168 16.8287 16.3479 17.2016 15.9882C18.0837 16.8801 19.0152 17.8215 19.9401 18.7563C19.0441 19.6456 18.1047 20.5784 17.1752 21.5007C16.8261 21.145 16.4545 20.7668 16.0586 20.3637C16.2813 20.1674 16.5349 19.9434 16.7885 19.7194C16.7727 19.6805 16.7569 19.6417 16.7404 19.6035H16.3775C12.0507 19.6035 7.72398 19.6048 3.39723 19.6028C2.21278 19.6028 1.35903 19.0284 1.03294 17.9836C0.943346 17.6964 0.917655 17.3801 0.916996 17.0765C0.90975 12.7708 0.912385 8.46513 0.912385 4.15946C0.912385 4.04352 0.912385 3.92692 0.912385 3.81098C0.886693 3.79582 0.861001 3.78133 0.83531 3.76618H0.837286ZM2.56258 16.6832C7.40975 11.8354 12.249 6.99477 17.0935 2.14958C16.4032 2.14958 15.6937 2.14365 14.9842 2.15682C14.8933 2.1588 14.7879 2.24181 14.7154 2.31427C10.7167 6.309 6.72003 10.3064 2.72596 14.3064C2.65415 14.3788 2.57115 14.4842 2.56917 14.5751C2.55599 15.284 2.56192 15.9928 2.56192 16.6825L2.56258 16.6832ZM18.365 3.45788C13.5296 8.29187 8.69499 13.1259 3.86693 17.9526C4.52569 17.9526 5.22464 17.9585 5.92358 17.9454C6.01449 17.9434 6.11858 17.8571 6.19104 17.784C10.1963 13.7826 14.1996 9.7787 18.1996 5.77277C18.2721 5.7003 18.3557 5.5949 18.357 5.50399C18.3702 4.80571 18.3643 4.10676 18.3643 3.45788H18.365ZM18.365 8.08766C15.0758 11.3742 11.7833 14.6641 8.49144 17.9526C9.15876 17.9526 9.85705 17.9585 10.556 17.9454C10.6462 17.9434 10.749 17.8531 10.8221 17.78C13.2846 15.3222 15.7444 12.8617 18.2016 10.3986C18.2734 10.3261 18.3557 10.2201 18.3577 10.1285C18.3709 9.42955 18.365 8.73061 18.365 8.087V8.08766ZM2.56258 12.0231C5.861 8.72599 9.14624 5.44141 12.4387 2.14958C11.7793 2.14958 11.1028 2.14365 10.4262 2.15617C10.334 2.15814 10.2266 2.23522 10.1548 2.30636C7.67589 4.78001 5.20026 7.2563 2.72727 9.73522C2.65547 9.80768 2.5718 9.91242 2.56983 10.004C2.55665 10.6819 2.56258 11.3597 2.56258 12.0231Z" fill="#4D5461"/>
</g>
</g>
<defs>
<clipPath id="clip0_2019_1054">
<rect width="20" height="20" fill="white" transform="translate(0 0.5)"/>
</clipPath>
<clipPath id="clip1_2019_1054">
<rect width="21.0145" height="21" fill="white" transform="translate(-1 0.5)"/>
</clipPath>
</defs>
</svg>
